<svg xmlns="http://www.w3.org/2000/svg" xmlns:xlink="http://www.w3.org/1999/xlink" version="1.1" style="background-color: #e6e6e6; width: 365px;" viewBox="0 -75 365 50" preserveAspectRatio="none">
  <polyline fill="none" stroke="#ff8800" stroke-width="3" points="0,-29 1,-29 2,-29 3,-29 4,-29 5,-29 6,-30 7,-31 8,-31 9,-31 10,-31 11,-31 12,-31 13,-31 14,-31 15,-31 16,-30 17,-30 18,-30 19,-30 20,-30 21,-30 22,-30 23,-30 24,-30 25,-30 26,-30 27,-30" />
  <line x1="0" y1="0" x2="365" y2="0" style="stroke:grey;stroke-width:1" />
  <line x1="0" y1="-25" x2="365" y2="-25" style="stroke:grey;stroke-width:1" />
  <line x1="0" y1="-50" x2="365" y2="-50" style="stroke:grey;stroke-width:1" />
  <line x1="0" y1="-75" x2="365" y2="-75" style="stroke:grey;stroke-width:1" />
</svg>