<svg xmlns="http://www.w3.org/2000/svg" xmlns:xlink="http://www.w3.org/1999/xlink" version="1.1" style="background-color: #e6e6e6; width: 365px;" viewBox="0 -125 365 50" preserveAspectRatio="none">
  <polyline fill="none" stroke="#ff8800" stroke-width="3" points="0,-87 1,-87 2,-87 3,-87 4,-87 5,-87 6,-88 7,-89 8,-89 9,-89 10,-89 11,-89 12,-89 13,-89 14,-89 15,-89 16,-88 17,-88 18,-88 19,-88 20,-88 21,-88 22,-88 23,-88 24,-88 25,-88 26,-88 27,-88 28,-88 29,-88 30,-88 31,-88 32,-88 33,-88 34,-88 35,-88 36,-88 37,-88 38,-88 39,-88 40,-88 41,-89 42,-89 43,-89 44,-89 45,-89 46,-89 47,-89 48,-89 49,-89 50,-89" />
  <line x1="0" y1="0" x2="365" y2="0" style="stroke:grey;stroke-width:1" />
  <line x1="0" y1="-25" x2="365" y2="-25" style="stroke:grey;stroke-width:1" />
  <line x1="0" y1="-50" x2="365" y2="-50" style="stroke:grey;stroke-width:1" />
  <line x1="0" y1="-75" x2="365" y2="-75" style="stroke:grey;stroke-width:1" />
  <line x1="0" y1="-100" x2="365" y2="-100" style="stroke:grey;stroke-width:1" />
  <line x1="0" y1="-125" x2="365" y2="-125" style="stroke:grey;stroke-width:1" />
</svg>