<svg xmlns="http://www.w3.org/2000/svg" xmlns:xlink="http://www.w3.org/1999/xlink" version="1.1" style="background-color: #e6e6e6; width: 365px;" viewBox="0 -175 365 50" preserveAspectRatio="none">
  <polyline fill="none" stroke="#ff8800" stroke-width="3" points="0,-134 1,-134 2,-134 3,-134 4,-134 5,-134 6,-135 7,-136 8,-136 9,-136 10,-136 11,-136 12,-136 13,-136 14,-136 15,-137 16,-136 17,-136 18,-136 19,-137 20,-137 21,-137 22,-137 23,-137 24,-137 25,-137 26,-137 27,-137 28,-137 29,-137 30,-137 31,-137 32,-137 33,-137 34,-137 35,-137 36,-137 37,-137 38,-137 39,-137 40,-138 41,-139 42,-139 43,-139" />
  <line x1="0" y1="0" x2="365" y2="0" style="stroke:grey;stroke-width:1" />
  <line x1="0" y1="-25" x2="365" y2="-25" style="stroke:grey;stroke-width:1" />
  <line x1="0" y1="-50" x2="365" y2="-50" style="stroke:grey;stroke-width:1" />
  <line x1="0" y1="-75" x2="365" y2="-75" style="stroke:grey;stroke-width:1" />
  <line x1="0" y1="-100" x2="365" y2="-100" style="stroke:grey;stroke-width:1" />
  <line x1="0" y1="-125" x2="365" y2="-125" style="stroke:grey;stroke-width:1" />
  <line x1="0" y1="-150" x2="365" y2="-150" style="stroke:grey;stroke-width:1" />
  <line x1="0" y1="-175" x2="365" y2="-175" style="stroke:grey;stroke-width:1" />
</svg>