<svg xmlns="http://www.w3.org/2000/svg" xmlns:xlink="http://www.w3.org/1999/xlink" version="1.1" style="background-color: #e6e6e6; width: 365px;" viewBox="0 -1075 365 75" preserveAspectRatio="none">
  <polyline fill="none" stroke="#ff8800" stroke-width="3" points="0,-1019 1,-1020 2,-1020 3,-1020 4,-1020 5,-1020 6,-1022 7,-1022 8,-1021 9,-1021 10,-1022 11,-1022 12,-1022 13,-1022 14,-1024 15,-1025 16,-1025 17,-1026 18,-1027 19,-1028 20,-1034 21,-1037 22,-1037 23,-1038 24,-1038" />
  <line x1="0" y1="0" x2="365" y2="0" style="stroke:grey;stroke-width:1" />
  <line x1="0" y1="-25" x2="365" y2="-25" style="stroke:grey;stroke-width:1" />
  <line x1="0" y1="-50" x2="365" y2="-50" style="stroke:grey;stroke-width:1" />
  <line x1="0" y1="-75" x2="365" y2="-75" style="stroke:grey;stroke-width:1" />
  <line x1="0" y1="-100" x2="365" y2="-100" style="stroke:grey;stroke-width:1" />
  <line x1="0" y1="-125" x2="365" y2="-125" style="stroke:grey;stroke-width:1" />
  <line x1="0" y1="-150" x2="365" y2="-150" style="stroke:grey;stroke-width:1" />
  <line x1="0" y1="-175" x2="365" y2="-175" style="stroke:grey;stroke-width:1" />
  <line x1="0" y1="-200" x2="365" y2="-200" style="stroke:grey;stroke-width:1" />
  <line x1="0" y1="-225" x2="365" y2="-225" style="stroke:grey;stroke-width:1" />
  <line x1="0" y1="-250" x2="365" y2="-250" style="stroke:grey;stroke-width:1" />
  <line x1="0" y1="-275" x2="365" y2="-275" style="stroke:grey;stroke-width:1" />
  <line x1="0" y1="-300" x2="365" y2="-300" style="stroke:grey;stroke-width:1" />
  <line x1="0" y1="-325" x2="365" y2="-325" style="stroke:grey;stroke-width:1" />
  <line x1="0" y1="-350" x2="365" y2="-350" style="stroke:grey;stroke-width:1" />
  <line x1="0" y1="-375" x2="365" y2="-375" style="stroke:grey;stroke-width:1" />
  <line x1="0" y1="-400" x2="365" y2="-400" style="stroke:grey;stroke-width:1" />
  <line x1="0" y1="-425" x2="365" y2="-425" style="stroke:grey;stroke-width:1" />
  <line x1="0" y1="-450" x2="365" y2="-450" style="stroke:grey;stroke-width:1" />
  <line x1="0" y1="-475" x2="365" y2="-475" style="stroke:grey;stroke-width:1" />
  <line x1="0" y1="-500" x2="365" y2="-500" style="stroke:grey;stroke-width:1" />
  <line x1="0" y1="-525" x2="365" y2="-525" style="stroke:grey;stroke-width:1" />
  <line x1="0" y1="-550" x2="365" y2="-550" style="stroke:grey;stroke-width:1" />
  <line x1="0" y1="-575" x2="365" y2="-575" style="stroke:grey;stroke-width:1" />
  <line x1="0" y1="-600" x2="365" y2="-600" style="stroke:grey;stroke-width:1" />
  <line x1="0" y1="-625" x2="365" y2="-625" style="stroke:grey;stroke-width:1" />
  <line x1="0" y1="-650" x2="365" y2="-650" style="stroke:grey;stroke-width:1" />
  <line x1="0" y1="-675" x2="365" y2="-675" style="stroke:grey;stroke-width:1" />
  <line x1="0" y1="-700" x2="365" y2="-700" style="stroke:grey;stroke-width:1" />
  <line x1="0" y1="-725" x2="365" y2="-725" style="stroke:grey;stroke-width:1" />
  <line x1="0" y1="-750" x2="365" y2="-750" style="stroke:grey;stroke-width:1" />
  <line x1="0" y1="-775" x2="365" y2="-775" style="stroke:grey;stroke-width:1" />
  <line x1="0" y1="-800" x2="365" y2="-800" style="stroke:grey;stroke-width:1" />
  <line x1="0" y1="-825" x2="365" y2="-825" style="stroke:grey;stroke-width:1" />
  <line x1="0" y1="-850" x2="365" y2="-850" style="stroke:grey;stroke-width:1" />
  <line x1="0" y1="-875" x2="365" y2="-875" style="stroke:grey;stroke-width:1" />
  <line x1="0" y1="-900" x2="365" y2="-900" style="stroke:grey;stroke-width:1" />
  <line x1="0" y1="-925" x2="365" y2="-925" style="stroke:grey;stroke-width:1" />
  <line x1="0" y1="-950" x2="365" y2="-950" style="stroke:grey;stroke-width:1" />
  <line x1="0" y1="-975" x2="365" y2="-975" style="stroke:grey;stroke-width:1" />
  <line x1="0" y1="-1000" x2="365" y2="-1000" style="stroke:grey;stroke-width:1" />
  <line x1="0" y1="-1025" x2="365" y2="-1025" style="stroke:grey;stroke-width:1" />
  <line x1="0" y1="-1050" x2="365" y2="-1050" style="stroke:grey;stroke-width:1" />
  <line x1="0" y1="-1075" x2="365" y2="-1075" style="stroke:grey;stroke-width:1" />
</svg>