<svg xmlns="http://www.w3.org/2000/svg" xmlns:xlink="http://www.w3.org/1999/xlink" version="1.1" style="background-color: #e6e6e6; width: 365px;" viewBox="0 -2275 365 75" preserveAspectRatio="none">
  <polyline fill="none" stroke="#ff8800" stroke-width="3" points="0,-2213 1,-2213 2,-2213 3,-2213 4,-2214 5,-2216 6,-2219 7,-2219 8,-2219 9,-2220 10,-2220 11,-2224 12,-2230 13,-2232 14,-2234 15,-2234 16,-2234 17,-2234 18,-2238 19,-2238 20,-2238 21,-2238 22,-2238 23,-2238" />
  <line x1="0" y1="0" x2="365" y2="0" style="stroke:grey;stroke-width:1" />
  <line x1="0" y1="-25" x2="365" y2="-25" style="stroke:grey;stroke-width:1" />
  <line x1="0" y1="-50" x2="365" y2="-50" style="stroke:grey;stroke-width:1" />
  <line x1="0" y1="-75" x2="365" y2="-75" style="stroke:grey;stroke-width:1" />
  <line x1="0" y1="-100" x2="365" y2="-100" style="stroke:grey;stroke-width:1" />
  <line x1="0" y1="-125" x2="365" y2="-125" style="stroke:grey;stroke-width:1" />
  <line x1="0" y1="-150" x2="365" y2="-150" style="stroke:grey;stroke-width:1" />
  <line x1="0" y1="-175" x2="365" y2="-175" style="stroke:grey;stroke-width:1" />
  <line x1="0" y1="-200" x2="365" y2="-200" style="stroke:grey;stroke-width:1" />
  <line x1="0" y1="-225" x2="365" y2="-225" style="stroke:grey;stroke-width:1" />
  <line x1="0" y1="-250" x2="365" y2="-250" style="stroke:grey;stroke-width:1" />
  <line x1="0" y1="-275" x2="365" y2="-275" style="stroke:grey;stroke-width:1" />
  <line x1="0" y1="-300" x2="365" y2="-300" style="stroke:grey;stroke-width:1" />
  <line x1="0" y1="-325" x2="365" y2="-325" style="stroke:grey;stroke-width:1" />
  <line x1="0" y1="-350" x2="365" y2="-350" style="stroke:grey;stroke-width:1" />
  <line x1="0" y1="-375" x2="365" y2="-375" style="stroke:grey;stroke-width:1" />
  <line x1="0" y1="-400" x2="365" y2="-400" style="stroke:grey;stroke-width:1" />
  <line x1="0" y1="-425" x2="365" y2="-425" style="stroke:grey;stroke-width:1" />
  <line x1="0" y1="-450" x2="365" y2="-450" style="stroke:grey;stroke-width:1" />
  <line x1="0" y1="-475" x2="365" y2="-475" style="stroke:grey;stroke-width:1" />
  <line x1="0" y1="-500" x2="365" y2="-500" style="stroke:grey;stroke-width:1" />
  <line x1="0" y1="-525" x2="365" y2="-525" style="stroke:grey;stroke-width:1" />
  <line x1="0" y1="-550" x2="365" y2="-550" style="stroke:grey;stroke-width:1" />
  <line x1="0" y1="-575" x2="365" y2="-575" style="stroke:grey;stroke-width:1" />
  <line x1="0" y1="-600" x2="365" y2="-600" style="stroke:grey;stroke-width:1" />
  <line x1="0" y1="-625" x2="365" y2="-625" style="stroke:grey;stroke-width:1" />
  <line x1="0" y1="-650" x2="365" y2="-650" style="stroke:grey;stroke-width:1" />
  <line x1="0" y1="-675" x2="365" y2="-675" style="stroke:grey;stroke-width:1" />
  <line x1="0" y1="-700" x2="365" y2="-700" style="stroke:grey;stroke-width:1" />
  <line x1="0" y1="-725" x2="365" y2="-725" style="stroke:grey;stroke-width:1" />
  <line x1="0" y1="-750" x2="365" y2="-750" style="stroke:grey;stroke-width:1" />
  <line x1="0" y1="-775" x2="365" y2="-775" style="stroke:grey;stroke-width:1" />
  <line x1="0" y1="-800" x2="365" y2="-800" style="stroke:grey;stroke-width:1" />
  <line x1="0" y1="-825" x2="365" y2="-825" style="stroke:grey;stroke-width:1" />
  <line x1="0" y1="-850" x2="365" y2="-850" style="stroke:grey;stroke-width:1" />
  <line x1="0" y1="-875" x2="365" y2="-875" style="stroke:grey;stroke-width:1" />
  <line x1="0" y1="-900" x2="365" y2="-900" style="stroke:grey;stroke-width:1" />
  <line x1="0" y1="-925" x2="365" y2="-925" style="stroke:grey;stroke-width:1" />
  <line x1="0" y1="-950" x2="365" y2="-950" style="stroke:grey;stroke-width:1" />
  <line x1="0" y1="-975" x2="365" y2="-975" style="stroke:grey;stroke-width:1" />
  <line x1="0" y1="-1000" x2="365" y2="-1000" style="stroke:grey;stroke-width:1" />
  <line x1="0" y1="-1025" x2="365" y2="-1025" style="stroke:grey;stroke-width:1" />
  <line x1="0" y1="-1050" x2="365" y2="-1050" style="stroke:grey;stroke-width:1" />
  <line x1="0" y1="-1075" x2="365" y2="-1075" style="stroke:grey;stroke-width:1" />
  <line x1="0" y1="-1100" x2="365" y2="-1100" style="stroke:grey;stroke-width:1" />
  <line x1="0" y1="-1125" x2="365" y2="-1125" style="stroke:grey;stroke-width:1" />
  <line x1="0" y1="-1150" x2="365" y2="-1150" style="stroke:grey;stroke-width:1" />
  <line x1="0" y1="-1175" x2="365" y2="-1175" style="stroke:grey;stroke-width:1" />
  <line x1="0" y1="-1200" x2="365" y2="-1200" style="stroke:grey;stroke-width:1" />
  <line x1="0" y1="-1225" x2="365" y2="-1225" style="stroke:grey;stroke-width:1" />
  <line x1="0" y1="-1250" x2="365" y2="-1250" style="stroke:grey;stroke-width:1" />
  <line x1="0" y1="-1275" x2="365" y2="-1275" style="stroke:grey;stroke-width:1" />
  <line x1="0" y1="-1300" x2="365" y2="-1300" style="stroke:grey;stroke-width:1" />
  <line x1="0" y1="-1325" x2="365" y2="-1325" style="stroke:grey;stroke-width:1" />
  <line x1="0" y1="-1350" x2="365" y2="-1350" style="stroke:grey;stroke-width:1" />
  <line x1="0" y1="-1375" x2="365" y2="-1375" style="stroke:grey;stroke-width:1" />
  <line x1="0" y1="-1400" x2="365" y2="-1400" style="stroke:grey;stroke-width:1" />
  <line x1="0" y1="-1425" x2="365" y2="-1425" style="stroke:grey;stroke-width:1" />
  <line x1="0" y1="-1450" x2="365" y2="-1450" style="stroke:grey;stroke-width:1" />
  <line x1="0" y1="-1475" x2="365" y2="-1475" style="stroke:grey;stroke-width:1" />
  <line x1="0" y1="-1500" x2="365" y2="-1500" style="stroke:grey;stroke-width:1" />
  <line x1="0" y1="-1525" x2="365" y2="-1525" style="stroke:grey;stroke-width:1" />
  <line x1="0" y1="-1550" x2="365" y2="-1550" style="stroke:grey;stroke-width:1" />
  <line x1="0" y1="-1575" x2="365" y2="-1575" style="stroke:grey;stroke-width:1" />
  <line x1="0" y1="-1600" x2="365" y2="-1600" style="stroke:grey;stroke-width:1" />
  <line x1="0" y1="-1625" x2="365" y2="-1625" style="stroke:grey;stroke-width:1" />
  <line x1="0" y1="-1650" x2="365" y2="-1650" style="stroke:grey;stroke-width:1" />
  <line x1="0" y1="-1675" x2="365" y2="-1675" style="stroke:grey;stroke-width:1" />
  <line x1="0" y1="-1700" x2="365" y2="-1700" style="stroke:grey;stroke-width:1" />
  <line x1="0" y1="-1725" x2="365" y2="-1725" style="stroke:grey;stroke-width:1" />
  <line x1="0" y1="-1750" x2="365" y2="-1750" style="stroke:grey;stroke-width:1" />
  <line x1="0" y1="-1775" x2="365" y2="-1775" style="stroke:grey;stroke-width:1" />
  <line x1="0" y1="-1800" x2="365" y2="-1800" style="stroke:grey;stroke-width:1" />
  <line x1="0" y1="-1825" x2="365" y2="-1825" style="stroke:grey;stroke-width:1" />
  <line x1="0" y1="-1850" x2="365" y2="-1850" style="stroke:grey;stroke-width:1" />
  <line x1="0" y1="-1875" x2="365" y2="-1875" style="stroke:grey;stroke-width:1" />
  <line x1="0" y1="-1900" x2="365" y2="-1900" style="stroke:grey;stroke-width:1" />
  <line x1="0" y1="-1925" x2="365" y2="-1925" style="stroke:grey;stroke-width:1" />
  <line x1="0" y1="-1950" x2="365" y2="-1950" style="stroke:grey;stroke-width:1" />
  <line x1="0" y1="-1975" x2="365" y2="-1975" style="stroke:grey;stroke-width:1" />
  <line x1="0" y1="-2000" x2="365" y2="-2000" style="stroke:grey;stroke-width:1" />
  <line x1="0" y1="-2025" x2="365" y2="-2025" style="stroke:grey;stroke-width:1" />
  <line x1="0" y1="-2050" x2="365" y2="-2050" style="stroke:grey;stroke-width:1" />
  <line x1="0" y1="-2075" x2="365" y2="-2075" style="stroke:grey;stroke-width:1" />
  <line x1="0" y1="-2100" x2="365" y2="-2100" style="stroke:grey;stroke-width:1" />
  <line x1="0" y1="-2125" x2="365" y2="-2125" style="stroke:grey;stroke-width:1" />
  <line x1="0" y1="-2150" x2="365" y2="-2150" style="stroke:grey;stroke-width:1" />
  <line x1="0" y1="-2175" x2="365" y2="-2175" style="stroke:grey;stroke-width:1" />
  <line x1="0" y1="-2200" x2="365" y2="-2200" style="stroke:grey;stroke-width:1" />
  <line x1="0" y1="-2225" x2="365" y2="-2225" style="stroke:grey;stroke-width:1" />
  <line x1="0" y1="-2250" x2="365" y2="-2250" style="stroke:grey;stroke-width:1" />
  <line x1="0" y1="-2275" x2="365" y2="-2275" style="stroke:grey;stroke-width:1" />
</svg>