<svg xmlns="http://www.w3.org/2000/svg" xmlns:xlink="http://www.w3.org/1999/xlink" version="1.1" style="background-color: #e6e6e6; width: 365px;" viewBox="0 -250 365 75" preserveAspectRatio="none">
  <polyline fill="none" stroke="#ff8800" stroke-width="3" points="0,-189 1,-189 2,-189 3,-189 4,-189 5,-189 6,-190 7,-190 8,-190 9,-190 10,-190 11,-190 12,-190 13,-190 14,-190 15,-191 16,-191 17,-194 18,-194 19,-194 20,-194 21,-195 22,-196 23,-196 24,-196 25,-197 26,-197 27,-197 28,-197 29,-197 30,-197 31,-197 32,-197 33,-202 34,-202 35,-202 36,-202 37,-202 38,-202 39,-202 40,-202 41,-202 42,-202 43,-203 44,-203 45,-203 46,-203 47,-203 48,-203 49,-203 50,-203 51,-203 52,-203 53,-203 54,-203 55,-203 56,-203 57,-203 58,-203 59,-203" />
  <line x1="0" y1="0" x2="365" y2="0" style="stroke:grey;stroke-width:1" />
  <line x1="0" y1="-25" x2="365" y2="-25" style="stroke:grey;stroke-width:1" />
  <line x1="0" y1="-50" x2="365" y2="-50" style="stroke:grey;stroke-width:1" />
  <line x1="0" y1="-75" x2="365" y2="-75" style="stroke:grey;stroke-width:1" />
  <line x1="0" y1="-100" x2="365" y2="-100" style="stroke:grey;stroke-width:1" />
  <line x1="0" y1="-125" x2="365" y2="-125" style="stroke:grey;stroke-width:1" />
  <line x1="0" y1="-150" x2="365" y2="-150" style="stroke:grey;stroke-width:1" />
  <line x1="0" y1="-175" x2="365" y2="-175" style="stroke:grey;stroke-width:1" />
  <line x1="0" y1="-200" x2="365" y2="-200" style="stroke:grey;stroke-width:1" />
  <line x1="0" y1="-225" x2="365" y2="-225" style="stroke:grey;stroke-width:1" />
  <line x1="0" y1="-250" x2="365" y2="-250" style="stroke:grey;stroke-width:1" />
</svg>