<svg xmlns="http://www.w3.org/2000/svg" xmlns:xlink="http://www.w3.org/1999/xlink" version="1.1" style="background-color: #e6e6e6; width: 365px;" viewBox="0 -1625 365 150" preserveAspectRatio="none">
  <polyline fill="none" stroke="#ff8800" stroke-width="3" points="0,-1482 1,-1482 2,-1482 3,-1485 4,-1486 5,-1488 6,-1491 7,-1493 8,-1500 9,-1500 10,-1501 11,-1503 12,-1505 13,-1507 14,-1508 15,-1510 16,-1513 17,-1516 18,-1517 19,-1518 20,-1519 21,-1536 22,-1537 23,-1537 24,-1537 25,-1539 26,-1540 27,-1546 28,-1549 29,-1550 30,-1551 31,-1553 32,-1553 33,-1554 34,-1555 35,-1560 36,-1560 37,-1561 38,-1564 39,-1569 40,-1572 41,-1574 42,-1576 43,-1582 44,-1583 45,-1586 46,-1588 47,-1591" />
  <line x1="0" y1="0" x2="365" y2="0" style="stroke:grey;stroke-width:1" />
  <line x1="0" y1="-25" x2="365" y2="-25" style="stroke:grey;stroke-width:1" />
  <line x1="0" y1="-50" x2="365" y2="-50" style="stroke:grey;stroke-width:1" />
  <line x1="0" y1="-75" x2="365" y2="-75" style="stroke:grey;stroke-width:1" />
  <line x1="0" y1="-100" x2="365" y2="-100" style="stroke:grey;stroke-width:1" />
  <line x1="0" y1="-125" x2="365" y2="-125" style="stroke:grey;stroke-width:1" />
  <line x1="0" y1="-150" x2="365" y2="-150" style="stroke:grey;stroke-width:1" />
  <line x1="0" y1="-175" x2="365" y2="-175" style="stroke:grey;stroke-width:1" />
  <line x1="0" y1="-200" x2="365" y2="-200" style="stroke:grey;stroke-width:1" />
  <line x1="0" y1="-225" x2="365" y2="-225" style="stroke:grey;stroke-width:1" />
  <line x1="0" y1="-250" x2="365" y2="-250" style="stroke:grey;stroke-width:1" />
  <line x1="0" y1="-275" x2="365" y2="-275" style="stroke:grey;stroke-width:1" />
  <line x1="0" y1="-300" x2="365" y2="-300" style="stroke:grey;stroke-width:1" />
  <line x1="0" y1="-325" x2="365" y2="-325" style="stroke:grey;stroke-width:1" />
  <line x1="0" y1="-350" x2="365" y2="-350" style="stroke:grey;stroke-width:1" />
  <line x1="0" y1="-375" x2="365" y2="-375" style="stroke:grey;stroke-width:1" />
  <line x1="0" y1="-400" x2="365" y2="-400" style="stroke:grey;stroke-width:1" />
  <line x1="0" y1="-425" x2="365" y2="-425" style="stroke:grey;stroke-width:1" />
  <line x1="0" y1="-450" x2="365" y2="-450" style="stroke:grey;stroke-width:1" />
  <line x1="0" y1="-475" x2="365" y2="-475" style="stroke:grey;stroke-width:1" />
  <line x1="0" y1="-500" x2="365" y2="-500" style="stroke:grey;stroke-width:1" />
  <line x1="0" y1="-525" x2="365" y2="-525" style="stroke:grey;stroke-width:1" />
  <line x1="0" y1="-550" x2="365" y2="-550" style="stroke:grey;stroke-width:1" />
  <line x1="0" y1="-575" x2="365" y2="-575" style="stroke:grey;stroke-width:1" />
  <line x1="0" y1="-600" x2="365" y2="-600" style="stroke:grey;stroke-width:1" />
  <line x1="0" y1="-625" x2="365" y2="-625" style="stroke:grey;stroke-width:1" />
  <line x1="0" y1="-650" x2="365" y2="-650" style="stroke:grey;stroke-width:1" />
  <line x1="0" y1="-675" x2="365" y2="-675" style="stroke:grey;stroke-width:1" />
  <line x1="0" y1="-700" x2="365" y2="-700" style="stroke:grey;stroke-width:1" />
  <line x1="0" y1="-725" x2="365" y2="-725" style="stroke:grey;stroke-width:1" />
  <line x1="0" y1="-750" x2="365" y2="-750" style="stroke:grey;stroke-width:1" />
  <line x1="0" y1="-775" x2="365" y2="-775" style="stroke:grey;stroke-width:1" />
  <line x1="0" y1="-800" x2="365" y2="-800" style="stroke:grey;stroke-width:1" />
  <line x1="0" y1="-825" x2="365" y2="-825" style="stroke:grey;stroke-width:1" />
  <line x1="0" y1="-850" x2="365" y2="-850" style="stroke:grey;stroke-width:1" />
  <line x1="0" y1="-875" x2="365" y2="-875" style="stroke:grey;stroke-width:1" />
  <line x1="0" y1="-900" x2="365" y2="-900" style="stroke:grey;stroke-width:1" />
  <line x1="0" y1="-925" x2="365" y2="-925" style="stroke:grey;stroke-width:1" />
  <line x1="0" y1="-950" x2="365" y2="-950" style="stroke:grey;stroke-width:1" />
  <line x1="0" y1="-975" x2="365" y2="-975" style="stroke:grey;stroke-width:1" />
  <line x1="0" y1="-1000" x2="365" y2="-1000" style="stroke:grey;stroke-width:1" />
  <line x1="0" y1="-1025" x2="365" y2="-1025" style="stroke:grey;stroke-width:1" />
  <line x1="0" y1="-1050" x2="365" y2="-1050" style="stroke:grey;stroke-width:1" />
  <line x1="0" y1="-1075" x2="365" y2="-1075" style="stroke:grey;stroke-width:1" />
  <line x1="0" y1="-1100" x2="365" y2="-1100" style="stroke:grey;stroke-width:1" />
  <line x1="0" y1="-1125" x2="365" y2="-1125" style="stroke:grey;stroke-width:1" />
  <line x1="0" y1="-1150" x2="365" y2="-1150" style="stroke:grey;stroke-width:1" />
  <line x1="0" y1="-1175" x2="365" y2="-1175" style="stroke:grey;stroke-width:1" />
  <line x1="0" y1="-1200" x2="365" y2="-1200" style="stroke:grey;stroke-width:1" />
  <line x1="0" y1="-1225" x2="365" y2="-1225" style="stroke:grey;stroke-width:1" />
  <line x1="0" y1="-1250" x2="365" y2="-1250" style="stroke:grey;stroke-width:1" />
  <line x1="0" y1="-1275" x2="365" y2="-1275" style="stroke:grey;stroke-width:1" />
  <line x1="0" y1="-1300" x2="365" y2="-1300" style="stroke:grey;stroke-width:1" />
  <line x1="0" y1="-1325" x2="365" y2="-1325" style="stroke:grey;stroke-width:1" />
  <line x1="0" y1="-1350" x2="365" y2="-1350" style="stroke:grey;stroke-width:1" />
  <line x1="0" y1="-1375" x2="365" y2="-1375" style="stroke:grey;stroke-width:1" />
  <line x1="0" y1="-1400" x2="365" y2="-1400" style="stroke:grey;stroke-width:1" />
  <line x1="0" y1="-1425" x2="365" y2="-1425" style="stroke:grey;stroke-width:1" />
  <line x1="0" y1="-1450" x2="365" y2="-1450" style="stroke:grey;stroke-width:1" />
  <line x1="0" y1="-1475" x2="365" y2="-1475" style="stroke:grey;stroke-width:1" />
  <line x1="0" y1="-1500" x2="365" y2="-1500" style="stroke:grey;stroke-width:1" />
  <line x1="0" y1="-1525" x2="365" y2="-1525" style="stroke:grey;stroke-width:1" />
  <line x1="0" y1="-1550" x2="365" y2="-1550" style="stroke:grey;stroke-width:1" />
  <line x1="0" y1="-1575" x2="365" y2="-1575" style="stroke:grey;stroke-width:1" />
  <line x1="0" y1="-1600" x2="365" y2="-1600" style="stroke:grey;stroke-width:1" />
  <line x1="0" y1="-1625" x2="365" y2="-1625" style="stroke:grey;stroke-width:1" />
</svg>