<svg xmlns="http://www.w3.org/2000/svg" xmlns:xlink="http://www.w3.org/1999/xlink" version="1.1" style="background-color: #e6e6e6; width: 365px;" viewBox="0 -300 365 50" preserveAspectRatio="none">
  <polyline fill="none" stroke="#ff8800" stroke-width="3" points="0,-268 1,-268 2,-268 3,-268 4,-268 5,-268 6,-268 7,-268 8,-268 9,-268 10,-268 11,-268 12,-268 13,-268 14,-268 15,-268 16,-268 17,-268 18,-268 19,-268 20,-268 21,-268 22,-268 23,-268 24,-268 25,-268 26,-268 27,-268 28,-268 29,-268 30,-268 31,-268 32,-268 33,-268 34,-268 35,-268 36,-268 37,-268 38,-268 39,-268 40,-268 41,-268 42,-268 43,-268" />
  <line x1="0" y1="0" x2="365" y2="0" style="stroke:grey;stroke-width:1" />
  <line x1="0" y1="-25" x2="365" y2="-25" style="stroke:grey;stroke-width:1" />
  <line x1="0" y1="-50" x2="365" y2="-50" style="stroke:grey;stroke-width:1" />
  <line x1="0" y1="-75" x2="365" y2="-75" style="stroke:grey;stroke-width:1" />
  <line x1="0" y1="-100" x2="365" y2="-100" style="stroke:grey;stroke-width:1" />
  <line x1="0" y1="-125" x2="365" y2="-125" style="stroke:grey;stroke-width:1" />
  <line x1="0" y1="-150" x2="365" y2="-150" style="stroke:grey;stroke-width:1" />
  <line x1="0" y1="-175" x2="365" y2="-175" style="stroke:grey;stroke-width:1" />
  <line x1="0" y1="-200" x2="365" y2="-200" style="stroke:grey;stroke-width:1" />
  <line x1="0" y1="-225" x2="365" y2="-225" style="stroke:grey;stroke-width:1" />
  <line x1="0" y1="-250" x2="365" y2="-250" style="stroke:grey;stroke-width:1" />
  <line x1="0" y1="-275" x2="365" y2="-275" style="stroke:grey;stroke-width:1" />
  <line x1="0" y1="-300" x2="365" y2="-300" style="stroke:grey;stroke-width:1" />
</svg>