<svg xmlns="http://www.w3.org/2000/svg" xmlns:xlink="http://www.w3.org/1999/xlink" version="1.1" style="background-color: #e6e6e6; width: 365px;" viewBox="0 -150 365 50" preserveAspectRatio="none">
  <polyline fill="none" stroke="#ff8800" stroke-width="3" points="0,-107 1,-107 2,-107 3,-107 4,-107 5,-107 6,-107 7,-107 8,-107 9,-107 10,-107 11,-107 12,-107 13,-107 14,-107 15,-107 16,-107 17,-107 18,-107 19,-107 20,-107 21,-107 22,-107 23,-107 24,-107 25,-107 26,-107 27,-107 28,-107 29,-107 30,-107 31,-107 32,-107 33,-107 34,-107 35,-107 36,-107 37,-107 38,-107 39,-107 40,-107 41,-107 42,-107 43,-107" />
  <line x1="0" y1="0" x2="365" y2="0" style="stroke:grey;stroke-width:1" />
  <line x1="0" y1="-25" x2="365" y2="-25" style="stroke:grey;stroke-width:1" />
  <line x1="0" y1="-50" x2="365" y2="-50" style="stroke:grey;stroke-width:1" />
  <line x1="0" y1="-75" x2="365" y2="-75" style="stroke:grey;stroke-width:1" />
  <line x1="0" y1="-100" x2="365" y2="-100" style="stroke:grey;stroke-width:1" />
  <line x1="0" y1="-125" x2="365" y2="-125" style="stroke:grey;stroke-width:1" />
  <line x1="0" y1="-150" x2="365" y2="-150" style="stroke:grey;stroke-width:1" />
</svg>